<?xml version="1.0" encoding="UTF-8" standalone="no"?>
<!DOCTYPE svg PUBLIC "-//W3C//DTD SVG 1.1//EN" "http://www.w3.org/Graphics/SVG/1.1/DTD/svg11.dtd">
<svg width="100%" height="100%" viewBox="0 0 3508 2481" version="1.1" xmlns="http://www.w3.org/2000/svg" xmlns:xlink="http://www.w3.org/1999/xlink" xml:space="preserve" xmlns:serif="http://www.serif.com/" style="fill-rule:evenodd;clip-rule:evenodd;stroke-linecap:round;stroke-linejoin:round;stroke-miterlimit:1.5;">
    <g transform="matrix(1.03938,0,0,1,-133.994,478.509)">
        <path d="M499.395,383.642C671.094,381.941 708.363,520.649 915.972,432.99C1123.58,345.331 1161.85,442.861 1621.33,447.228C2080.8,451.595 1976.11,209.555 2155.58,220.98C2335.05,232.405 2444.26,211.586 2704.56,247.731C2964.85,283.875 2694.75,71.298 2821.03,86.828C2947.31,102.358 2998.92,89.132 3140.93,106.875C3282.94,124.619 3280.44,400.282 3138.43,382.538C2996.41,364.794 2944.81,378.021 2818.53,362.491C2692.25,346.96 2962.35,559.538 2702.05,523.394C2441.76,487.249 2332.55,508.068 2153.08,496.643C1973.61,485.218 2078.3,727.258 1618.83,722.891C1159.35,718.524 1121.08,620.994 913.47,708.653C705.861,796.312 668.592,657.604 496.893,659.305C325.194,661.005 327.696,385.342 499.395,383.642Z" style="fill:rgb(163,190,140);stroke:black;stroke-width:0.98px;"/>
    </g>
</svg>

